<?xml version="1.0" encoding="UTF-8" standalone="no"?>
<!-- Created with Inkscape (http://www.inkscape.org/) -->

<svg
   width="16.933334mm"
   height="16.933334mm"
   viewBox="0 0 16.933334 16.933334"
   version="1.1"
   id="svg5"
   xml:space="preserve"
   inkscape:version="1.2.2 (b0a84865, 2022-12-01)"
   sodipodi:docname="drawing.svg"
   inkscape:export-filename="logo.svg"
   inkscape:export-xdpi="120.03695"
   inkscape:export-ydpi="120.03695"
   xmlns:inkscape="http://www.inkscape.org/namespaces/inkscape"
   xmlns:sodipodi="http://sodipodi.sourceforge.net/DTD/sodipodi-0.dtd"
   xmlns="http://www.w3.org/2000/svg"
   xmlns:svg="http://www.w3.org/2000/svg"><sodipodi:namedview
     id="namedview7"
     pagecolor="#ffffff"
     bordercolor="#000000"
     borderopacity="0.25"
     inkscape:showpageshadow="2"
     inkscape:pageopacity="0.0"
     inkscape:pagecheckerboard="0"
     inkscape:deskcolor="#d1d1d1"
     inkscape:document-units="mm"
     showgrid="false"
     inkscape:zoom="1.1839565"
     inkscape:cx="312.93379"
     inkscape:cy="515.22162"
     inkscape:window-width="1440"
     inkscape:window-height="876"
     inkscape:window-x="0"
     inkscape:window-y="24"
     inkscape:window-maximized="0"
     inkscape:current-layer="layer1" /><defs
     id="defs2" /><g
     inkscape:label="Layer 1"
     inkscape:groupmode="layer"
     id="layer1"
     transform="translate(-75.986574,-84.959157)"><path
       id="rect11647"
       style="color:#000000;opacity:1;fill:#144b59;fill-opacity:1;stroke-width:1.07701;stroke-linecap:round;stroke-linejoin:round;-inkscape-stroke:none"
       d="m 79.698649,84.959155 c -2.062988,0 -3.712073,1.788656 -3.712073,3.933503 v 9.06577 c 0,2.144852 1.649085,3.934062 3.712073,3.934062 h 9.509188 c 2.062988,0 3.712072,-1.78921 3.712072,-3.934062 v -9.06577 c 0,-2.144847 -1.649084,-3.933503 -3.712072,-3.933503 z m 0,1.592734 h 4.130404 c -0.0013,0.0022 -0.0022,0.0046 -0.0022,0.0073 v 0.943614 a 1.1810748,1.2043203 0 0 0 -0.557776,1.022294 1.1810748,1.2043203 0 0 0 1.181139,1.204386 1.1810748,1.2043203 0 0 0 1.181139,-1.204386 1.1810748,1.2043203 0 0 0 -0.595806,-1.045899 v -0.920009 c 0,-0.0027 -9.5e-4,-0.0051 -0.0022,-0.0073 h 4.174497 c 1.182836,0 2.150081,1.009549 2.150081,2.340769 v 9.06577 c 0,1.33122 -0.967245,2.343022 -2.150081,2.343022 h -4.15245 v -2.551527 h 1.908122 c 0.0055,0 0.01045,-0.0029 0.01323,-0.0073 2.212455,-0.32572 2.293657,-2.560977 1.287512,-3.576065 0.947009,-1.197377 0.52391,-3.172463 -1.406563,-3.356881 -2.5e-5,0.0015 2.4e-5,0.0025 0,0.0039 h -7.100061 c -0.0081,0 -0.01434,0.0063 -0.01434,0.01462 v 1.243165 c 0,0.0083 0.0062,0.01462 0.01434,0.01462 h 1.24342 v 5.797125 c 0,0.0079 0.0065,0.01405 0.01432,0.01405 h 1.269876 c 0.0078,0 0.01378,-0.0061 0.01378,-0.01405 v -5.797125 h 4.576845 c 0.0061,0 0.0115,-0.0037 0.01378,-0.009 0.761509,0.147659 1.013733,0.899736 0.222118,1.489887 h -0.855402 a 1.1105475,1.132405 0 0 0 -0.928156,-0.510867 1.1105475,1.132405 0 0 0 -1.11059,1.132449 1.1105475,1.132405 0 0 0 1.11059,1.131886 1.1105475,1.132405 0 0 0 0.927604,-0.511428 h 0.882962 c 0.854814,0.41972 0.656562,1.470691 -0.169207,1.635447 h -5.52e-4 c -0.0017,-6.38e-4 -0.0036,-0.0011 -0.0055,-0.0011 h -1.919697 -0.0028 -1.015239 -0.205584 c -0.001,0 -0.0018,-2e-4 -0.0028,0 -0.0067,0.0014 -0.01213,0.0073 -0.01213,0.01462 v 3.843584 H 79.69857 c -1.182835,0 -2.150081,-1.0118 -2.150081,-2.343019 V 88.89267 c 0,-1.331219 0.967246,-2.340769 2.150081,-2.340769 z" /></g></svg>
