<?xml version="1.0" standalone="no"?>
<!DOCTYPE svg PUBLIC "-//W3C//DTD SVG 20010904//EN"
 "http://www.w3.org/TR/2001/REC-SVG-20010904/DTD/svg10.dtd">
<svg version="1.0" xmlns="http://www.w3.org/2000/svg"
 width="700.000000pt" height="700.000000pt" viewBox="0 0 700.000000 700.000000"
 preserveAspectRatio="xMidYMid meet">
<metadata>
Created by potrace 1.14, written by Peter Selinger 2001-2017
</metadata>
<g transform="translate(0.000000,700.000000) scale(0.100000,-0.100000)"
fill="#000000" stroke="none">
<path d="M1325 6984 c-687 -104 -1227 -684 -1313 -1409 -9 -81 -9 -4084 1
-4160 8 -70 34 -197 48 -240 57 -180 62 -192 126 -320 194 -388 548 -684 955
-800 194 -55 111 -53 2393 -51 1166 1 2134 5 2150 9 17 4 68 17 115 28 120 28
189 53 315 115 297 146 549 400 703 710 69 139 124 295 148 419 4 22 8 45 9
51 2 6 7 37 11 70 11 70 12 4081 2 4169 -41 355 -210 712 -458 965 -222 227
-460 359 -779 432 l-96 22 -2120 2 c-1754 2 -2136 0 -2210 -12z m1915 -841 l0
-198 -40 -28 c-114 -80 -194 -254 -189 -407 9 -226 173 -425 389 -471 115 -25
270 5 364 70 279 192 297 602 35 808 l-59 46 0 188 0 189 904 0 c989 0 977 1
1132 -59 121 -47 235 -127 328 -231 141 -159 222 -349 243 -570 9 -88 9 -3865
0 -3964 -30 -352 -248 -661 -558 -792 -156 -66 -158 -66 -1098 -65 -465 0
-867 0 -893 0 l-48 1 0 525 0 525 63 0 c530 4 757 8 782 13 64 13 74 16 136
35 324 102 537 336 588 648 10 61 8 267 -3 319 -31 145 -101 299 -181 399 -30
38 -55 71 -55 72 0 1 16 26 36 55 97 143 155 326 157 499 2 185 -34 319 -125
465 -33 53 -151 175 -205 213 -58 40 -167 90 -259 119 l-89 28 -1521 3 -1521
2 0 -260 c0 -184 3 -260 11 -262 6 0 117 -2 246 -3 129 -2 242 -3 250 -4 13
-1 15 -141 15 -1198 l0 -1198 267 -3 268 -2 2 1202 3 1202 965 0 965 -1 58
-26 c82 -37 128 -77 162 -139 25 -44 30 -64 30 -124 0 -60 -5 -80 -34 -136
-21 -42 -56 -89 -95 -126 l-61 -59 -175 -1 -175 0 -55 57 c-30 31 -74 69 -96
83 -85 55 -213 80 -319 64 -58 -9 -145 -48 -195 -87 -125 -99 -185 -225 -183
-384 2 -181 98 -333 258 -410 135 -65 270 -63 405 5 55 28 170 130 170 151 0
5 80 9 185 9 l186 0 52 -33 c66 -43 113 -96 145 -167 37 -79 37 -192 1 -270
-45 -97 -126 -166 -229 -195 -35 -10 -190 -13 -675 -14 -346 0 -640 0 -652 0
l-22 -1 2 -795 2 -795 -90 0 c-49 -1 -454 -1 -900 -1 l-810 0 -96 24 c-164 42
-287 112 -408 230 -152 148 -258 374 -278 592 -9 94 -8 3901 0 3989 10 92 22
147 54 236 37 104 114 242 162 291 9 9 35 36 58 61 82 87 201 165 318 207 138
50 131 49 1093 50 l902 1 0 -197z"/>
</g>
</svg>
