<svg version="1.0" xmlns="http://www.w3.org/2000/svg" width="933.333" height="933.333" viewBox="0 0 700 700"><path d="M132.5 1.6C63.8 12 9.8 70 1.2 142.5c-.9 8.1-.9 408.4.1 416 .8 7 3.4 19.7 4.8 24 5.7 18 6.2 19.2 12.6 32 19.4 38.8 54.8 68.4 95.5 80 19.4 5.5 11.1 5.3 239.3 5.1 116.6-.1 213.4-.5 215-.9 1.7-.4 6.8-1.7 11.5-2.8 12-2.8 18.9-5.3 31.5-11.5 29.7-14.6 54.9-40 70.3-71 6.9-13.9 12.4-29.5 14.8-41.9.4-2.2.8-4.5.9-5.1.2-.6.7-3.7 1.1-7 1.1-7 1.2-408.1.2-416.9-4.1-35.5-21-71.2-45.8-96.5-22.2-22.7-46-35.9-77.9-43.2L565.5.6l-212-.2c-175.4-.2-213.6 0-221 1.2zM324 85.7v19.8l-4 2.8c-11.4 8-19.4 25.4-18.9 40.7.9 22.6 17.3 42.5 38.9 47.1 11.5 2.5 27-.5 36.4-7 27.9-19.2 29.7-60.2 3.5-80.8l-5.9-4.6V66h90.4c98.9 0 97.7-.1 113.2 5.9 12.1 4.7 23.5 12.7 32.8 23.1 14.1 15.9 22.2 34.9 24.3 57 .9 8.8.9 386.5 0 396.4-3 35.2-24.8 66.1-55.8 79.2-15.6 6.6-15.8 6.6-109.8 6.5h-89.3l-4.8-.1V529h6.3c53-.4 75.7-.8 78.2-1.3 6.4-1.3 7.4-1.6 13.6-3.5 32.4-10.2 53.7-33.6 58.8-64.8 1-6.1.8-26.7-.3-31.9-3.1-14.5-10.1-29.9-18.1-39.9-3-3.8-5.5-7.1-5.5-7.2 0-.1 1.6-2.6 3.6-5.5 9.7-14.3 15.5-32.6 15.7-49.9.2-18.5-3.4-31.9-12.5-46.5-3.3-5.3-15.1-17.5-20.5-21.3-5.8-4-16.7-9-25.9-11.9l-8.9-2.8-152.1-.3-152.1-.2v26c0 18.4.3 26 1.1 26.2.6 0 11.7.2 24.6.3 12.9.2 24.2.3 25 .4 1.3.1 1.5 14.1 1.5 119.8v119.8l26.7.3 26.8.2.2-120.2.3-120.2H358l96.5.1 5.8 2.6c8.2 3.7 12.8 7.7 16.2 13.9 2.5 4.4 3 6.4 3 12.4s-.5 8-3.4 13.6c-2.1 4.2-5.6 8.9-9.5 12.6l-6.1 5.9-17.5.1h-17.5l-5.5-5.7c-3-3.1-7.4-6.9-9.6-8.3-8.5-5.5-21.3-8-31.9-6.4-5.8.9-14.5 4.8-19.5 8.7-12.5 9.9-18.5 22.5-18.3 38.4.2 18.1 9.8 33.3 25.8 41 13.5 6.5 27 6.3 40.5-.5 5.5-2.8 17-13 17-15.1 0-.5 8-.9 18.5-.9h18.6l5.2 3.3c6.6 4.3 11.3 9.6 14.5 16.7 3.7 7.9 3.7 19.2.1 27-4.5 9.7-12.6 16.6-22.9 19.5-3.5 1-19 1.3-67.5 1.4h-65.2l-2.2.1.2 79.5.2 79.5h-9c-4.9.1-45.4.1-90 .1h-81l-9.6-2.4c-16.4-4.2-28.7-11.2-40.8-23-15.2-14.8-25.8-37.4-27.8-59.2-.9-9.4-.8-390.1 0-398.9 1-9.2 2.2-14.7 5.4-23.6 3.7-10.4 11.4-24.2 16.2-29.1.9-.9 3.5-3.6 5.8-6.1 8.2-8.7 20.1-16.5 31.8-20.7 13.8-5 13.1-4.9 109.3-5L324 66v19.7z"/></svg>